<svg xmlns="http://www.w3.org/2000/svg" version="1.1" xmlns:xlink="http://www.w3.org/1999/xlink" width="845.2109375" height="332.1015625" viewBox="0 0 845.2109375 332.1015625"><style>.edge{stroke:rgb(0, 148, 133);fill:none;}</style><style>.edge.io{stroke-width:2;}</style><style>.edge.dependency{stroke-width:1;stroke-dasharray:4;}</style><style>text{fill:#000;stroke:none;}</style><style>.node{fill:#eee;stroke:rgb(0, 148, 133);stroke-width:1;color:#000;}</style><style>.node.level-0{fill:#fafafa;}</style><style>.node.level-1{fill:#eaeaea;}</style><style>.node.level-2{fill:#e0e0e0;}</style><style>.port{fill:rgb(0, 148, 133);stroke:rgb(0, 148, 133);stroke-width:1;}</style><g id="esp32" class="node level-0"><rect width="821.2109375" height="308.1015625" x="12" y="12"></rect><g id="jardinier.water" class="node level-1"><rect width="201.703125" height="43.578125" x="24" y="45.7890625"></rect><text x="44" y="62.890625"><tspan>jardinier.water(...)</tspan></text></g><g id="jardinier.lights.lights" class="node level-1"><rect width="248.1484375" height="121.3671875" x="24" y="175.9453125"></rect><g id="jardinier.lights.lights.run" class="node level-2"><rect width="122.671875" height="43.578125" x="36" y="209.734375"></rect><text x="56" y="226.8359375"><tspan>.run(...)</tspan></text></g><g id="jardinier.lights.lights.pwmDuty0"><rect width="10" height="10" class="port" x="272.1484375" y="209.734375"></rect><text x="170.671875" y="237.8359375"><tspan>pwmDuty0</tspan></text></g><g id="jardinier.lights.lights.pwmDuty1"><rect width="10" height="10" class="port" x="272.1484375" y="252.5234375"></rect><text x="170.671875" y="280.625"><tspan>pwmDuty1</tspan></text></g><text x="57.50390625" y="193.046875"><tspan>jardinier.lights.lights</tspan></text></g><g id="jardinier.lights.pwmTimer" class="node level-1"><rect width="261.6015625" height="43.578125" x="559.609375" y="189.68229166666666"></rect><text x="579.609375" y="206.78385416666666"><tspan>jardinier.lights.pwmTimer</tspan></text></g><g id="jardinier.lights.pwm1" class="node level-1"><rect width="227.4609375" height="89.3671875" x="312.1484375" y="218.734375"></rect><g id="jardinier.lights.pwm1.run" class="node level-2"><rect width="122.671875" height="43.578125" x="377.484375" y="252.5234375"></rect><text x="397.484375" y="269.625"><tspan>.run(...)</tspan></text></g><g id="jardinier.lights.pwm1.duty"><rect width="10" height="10" class="port" x="302.1484375" y="252.5234375"></rect><text x="332.1484375" y="280.625"><tspan>duty</tspan></text></g><text x="332.1484375" y="235.8359375"><tspan>jardinier.lights.pwm1</tspan></text></g><g id="jardinier.lights.pwm0" class="node level-1"><rect width="227.4609375" height="89.3671875" x="312.1484375" y="109.3671875"></rect><g id="jardinier.lights.pwm0.run" class="node level-2"><rect width="122.671875" height="43.578125" x="377.484375" y="143.15625"></rect><text x="397.484375" y="160.2578125"><tspan>.run(...)</tspan></text></g><g id="jardinier.lights.pwm0.duty"><rect width="10" height="10" class="port" x="302.1484375" y="143.15625"></rect><text x="332.1484375" y="171.2578125"><tspan>duty</tspan></text></g><text x="332.1484375" y="126.46875"><tspan>jardinier.lights.pwm0</tspan></text></g><g id="jardinier.lights.lights.pwmDuty0-jardinier.lights.pwm0.duty" class="edge io"><polyline points="282.1484375,214.734375 292.1484375,214.734375 292.1484375,148.15625 302.1484375,148.15625"></polyline></g><g id="jardinier.lights.lights.pwmDuty1-jardinier.lights.pwm1.duty" class="edge io"><polyline points="282.1484375,257.5234375 302.1484375,257.5234375"></polyline></g><g id="jardinier.lights.pwm1-jardinier.lights.pwmTimer" class="edge dependency"><polyline points="539.609375,218.734375 559.609375,218.734375"></polyline></g><g id="jardinier.lights.pwm0-jardinier.lights.pwmTimer" class="edge dependency"><polyline points="539.609375,109.3671875 549.609375,109.3671875 549.609375,204.20833333333334 559.609375,204.20833333333331"></polyline></g><text x="385.25" y="29.1015625"><tspan>esp32</tspan></text></g></svg>